<?xml version="1.0" encoding="UTF-8" standalone="no"?>
<!DOCTYPE svg PUBLIC "-//W3C//DTD SVG 1.1//EN" "http://www.w3.org/Graphics/SVG/1.1/DTD/svg11.dtd">
<svg width="50.00" height="50.00" viewBox="0.00 0.00 50.00 50.00" xmlns="http://www.w3.org/2000/svg" xmlns:xlink="http://www.w3.org/1999/xlink">
<g stroke-linecap="round" transform="translate(-375.00, -275.00)" id="레이어_2">
<path d="M382.49,298.17 C382.49,298.17 381.82,298.98 381.82,298.98 C381.82,298.98 381.50,299.06 381.50,299.06 C380.91,297.72 386.51,292.62 388.25,292.56 C389.09,292.58 390.20,294.06 390.01,295.96 C389.76,298.17 387.65,303.26 385.96,306.11 C384.48,308.59 381.48,312.42 381.00,312.83 C381.00,312.83 393.31,295.71 393.31,295.71 C393.76,296.04 394.13,298.11 393.58,300.42 C392.17,306.15 388.89,311.14 388.41,311.46 C388.41,311.46 398.29,297.99 398.29,297.99 C399.04,298.36 399.18,300.20 399.00,301.04 C398.54,303.17 395.65,310.39 395.66,310.64 C395.98,310.69 396.42,310.40 396.95,309.68 C397.44,309.01 398.65,305.02 399.09,304.45" fill="none" stroke="rgb(46, 136, 221)" stroke-width="3.80" stroke-opacity="1.00" stroke-linejoin="round"/>
<path d="M400.96,303.07 C400.96,303.07 404.18,298.13 404.18,298.13 C403.55,297.91 400.67,301.44 400.91,303.33 C401.92,303.83 402.55,303.84 403.33,303.25 C404.53,302.33 408.03,298.04 408.27,297.86 C408.42,298.65 409.01,313.62 408.81,314.46 C408.43,315.83 407.18,316.46 405.91,316.54 C403.50,316.65 398.58,314.58 398.47,313.70 C399.29,312.03 410.15,306.81 416.27,303.94 C419.85,302.30 423.27,301.00 423.81,300.79 C424.16,300.66 424.92,300.37 426.11,299.90" fill="none" stroke="rgb(46, 136, 221)" stroke-width="3.80" stroke-opacity="1.00" stroke-linejoin="round"/>
</g>
</svg>
