<?xml version="1.0" encoding="UTF-8" standalone="no"?>
<!DOCTYPE svg PUBLIC "-//W3C//DTD SVG 1.1//EN" "http://www.w3.org/Graphics/SVG/1.1/DTD/svg11.dtd">
<svg width="800.00" height="600.00" viewBox="0.00 0.00 800.00 600.00" xmlns="http://www.w3.org/2000/svg" xmlns:xlink="http://www.w3.org/1999/xlink">
<g stroke-linecap="round" id="레이어_2">
<path d="M299.57,332.52 C298.50,331.54 297.97,330.83 298.13,330.20 C298.54,328.68 303.24,324.52 305.69,323.01 C312.48,318.89 315.95,317.77 316.78,317.70 C316.63,319.71 315.67,325.69 315.31,326.88 C313.94,331.34 305.64,344.24 301.66,349.00 C293.68,358.37 291.69,359.79 291.28,359.53 C293.28,355.25 303.59,343.40 308.22,339.19 C313.52,334.41 325.74,325.93 330.22,324.69 C331.53,324.35 333.50,324.39 334.19,324.79 C335.45,325.62 335.69,330.18 334.81,333.35 C333.11,339.28 324.39,355.70 323.00,355.54 C322.93,354.14 325.23,350.41 327.05,347.98 C331.64,341.95 342.14,331.86 346.55,329.12 C349.56,327.27 354.24,325.48 356.14,325.62 C358.01,325.82 360.32,328.36 360.56,330.48 C360.73,332.41 359.86,337.41 358.72,340.46 C357.27,344.25 353.86,349.94 353.11,351.20 C353.94,350.94 366.13,340.40 371.63,335.64 C377.86,330.34 388.43,323.90 389.73,323.90 C385.94,327.93 382.47,332.00 381.80,334.34 C381.47,335.58 381.69,337.48 382.11,337.93 C383.21,338.89 385.93,339.25 389.92,339.38 C391.88,339.46 396.70,340.40 397.99,341.24 C399.62,342.36 401.31,346.86 401.40,350.16 C401.45,353.66 399.88,360.60 397.97,364.55 C396.22,368.06 390.36,374.71 386.96,376.88 C383.07,379.32 372.73,382.44 366.93,383.09 C363.64,383.44 356.25,383.42 353.86,383.04 C352.33,382.79 349.99,381.81 349.34,381.13 C348.71,380.38 348.55,378.36 349.09,377.22 C350.15,375.12 354.25,371.18 356.07,369.77 C360.50,366.38 371.24,360.34 380.81,355.57 C388.92,351.71 423.44,336.62 438.52,330.05 C447.69,326.01 450.65,323.89 452.08,322.67" fill="none" stroke="rgb(46, 136, 221)" stroke-width="10.00" stroke-opacity="1.00" stroke-linejoin="round"/>
</g>
</svg>
